<svg width="828" height="420" viewBox="0 0 828 420" fill="none" xmlns="http://www.w3.org/2000/svg">
  <defs>
    <linearGradient id="g1" x1="0" y1="0" x2="1" y2="1">
      <stop offset="0" stop-color="#1B1410"/>
      <stop offset="0.52" stop-color="#4A2519"/>
      <stop offset="1" stop-color="#140E0C"/>
    </linearGradient>
    <linearGradient id="g2" x1="0" y1="0" x2="0" y2="1">
      <stop offset="0" stop-color="#E8B86A"/>
      <stop offset="1" stop-color="#A76B2D"/>
    </linearGradient>
  </defs>
  <rect width="828" height="420" rx="24" fill="url(#g1)"/>
  <rect x="24" y="150" width="780" height="168" rx="22" fill="#8A4C23" opacity="0.28"/>
  <rect x="80" y="204" width="668" height="86" rx="43" fill="#8B4E25" opacity="0.36"/>
  <ellipse cx="414" cy="280" rx="300" ry="42" fill="#2E1610" opacity="0.72"/>
  <ellipse cx="414" cy="250" rx="262" ry="28" fill="#B06D2C" opacity="0.78"/>
  <ellipse cx="414" cy="246" rx="240" ry="18" fill="#D78A3D" opacity="0.55"/>
  <rect x="168" y="236" width="72" height="22" rx="11" fill="#F4E8CF" transform="rotate(-18 168 236)"/>
  <rect x="232" y="224" width="72" height="22" rx="11" fill="#F4E8CF" transform="rotate(-10 232 224)"/>
  <rect x="510" y="220" width="72" height="22" rx="11" fill="#F4E8CF" transform="rotate(13 510 220)"/>
  <rect x="570" y="228" width="72" height="22" rx="11" fill="#F4E8CF" transform="rotate(18 570 228)"/>
  <circle cx="646" cy="290" r="14" fill="#D94E48"/>
  <circle cx="660" cy="290" r="14" fill="#24334A"/>
  <circle cx="674" cy="290" r="14" fill="#D94E48"/>
  <circle cx="108" cy="286" r="14" fill="#24334A"/>
  <circle cx="122" cy="286" r="14" fill="#E5C25B"/>
  <circle cx="136" cy="286" r="14" fill="#D94E48"/>
  <path d="M250 122H578C602.301 122 622 141.699 622 166C622 190.301 602.301 210 578 210H250C225.699 210 206 190.301 206 166C206 141.699 225.699 122 250 122Z" fill="#0C0C0C" opacity="0.42"/>
  <rect x="304" y="22" width="220" height="24" rx="12" fill="url(#g2)" opacity="0.75"/>
</svg>
